<svg width="115" height="20" viewBox="0 0 115 20" fill="none" xmlns="http://www.w3.org/2000/svg">
<path fill-rule="evenodd" clip-rule="evenodd" d="M31.0398 0.564941L21.2875 19.6298H12.1273L16.2086 11.7285H16.0255C12.6585 16.0994 7.63466 18.9768 0.476562 19.6298V11.8379C0.476562 11.8379 5.05578 11.5674 7.74776 8.73713H0.476562V0.565092H8.64861V7.28648L8.83202 7.28573L12.1715 0.565092H18.3517V7.24386L18.5351 7.24356L21.9998 0.564941H31.0398ZM84.2203 17.5254H86.8522V2.41847H84.2203V17.5254ZM69.7109 17.3712C70.2828 17.609 70.8645 17.7279 71.4558 17.7279C72.4327 17.7279 73.3068 17.4901 74.0781 17.0145C74.8492 16.5389 75.447 15.8834 75.8712 15.0478C76.2954 14.2059 76.5075 13.2514 76.5075 12.1845C76.5075 11.1176 76.289 10.1632 75.852 9.32124C75.4148 8.4793 74.8075 7.82694 74.0298 7.36418C73.2521 6.89501 72.3684 6.66364 71.3786 6.67006C70.7488 6.67006 70.1447 6.79218 69.5662 7.03641C68.9878 7.28064 68.5058 7.6277 68.1201 8.0776C68.0903 8.11185 68.0614 8.14645 68.0334 8.18139V2.42816H65.3918V17.5255H68.0141L68.0088 16.1151C68.0766 16.1983 68.1491 16.2795 68.2261 16.3589C68.6439 16.7896 69.1388 17.1269 69.7109 17.3712ZM72.4102 14.9321C71.9796 15.1957 71.4879 15.3274 70.9351 15.3274C70.3888 15.3274 69.8875 15.1924 69.4312 14.9225C68.9748 14.6461 68.6118 14.2702 68.3418 13.7945C68.0783 13.3189 67.9465 12.779 67.9465 12.1748C67.9402 11.5707 68.0686 11.0308 68.3322 10.5553C68.6021 10.0732 68.9652 9.70044 69.4216 9.43693C69.8779 9.167 70.3825 9.03524 70.9351 9.04167C71.4879 9.03524 71.9796 9.16378 72.4102 9.42729C72.8472 9.68437 73.1814 10.0539 73.4128 10.536C73.6506 11.0116 73.7695 11.5579 73.7695 12.1748C73.7695 12.7919 73.6506 13.3382 73.4128 13.8138C73.1814 14.2895 72.8472 14.6622 72.4102 14.9321ZM34.8526 3.33437H37.8605L40.5512 13.1608L43.4136 3.33437H45.9202L49.0245 12.9636L51.6082 3.33437H54.3654L50.297 17.5255H47.7037L44.547 8.11845L41.6493 17.5255H39.0271L34.8526 3.33437ZM58.8075 17.776C57.7598 17.7825 56.8151 17.5511 55.9731 17.082C55.1376 16.6063 54.4789 15.9475 53.9967 15.1056C53.5212 14.2637 53.2834 13.3028 53.2834 12.223C53.2834 11.1754 53.5276 10.2274 54.0161 9.37905C54.5045 8.53066 55.1665 7.86867 56.002 7.39307C56.8376 6.91746 57.7695 6.67966 58.7978 6.67966C59.9547 6.67966 60.967 6.93674 61.8346 7.45091C62.7087 7.96507 63.3611 8.69456 63.7917 9.63934C64.2287 10.5777 64.3862 11.6542 64.2641 12.869H56.0062C56.0293 13.3529 56.15 13.7932 56.3684 14.1897C56.6127 14.6267 56.9533 14.9674 57.3903 15.2116C57.8274 15.4559 58.3158 15.578 58.8557 15.578C59.267 15.5715 59.6495 15.5009 60.0029 15.3659C60.3565 15.2245 60.6552 15.0349 60.8995 14.7971C61.1502 14.5593 61.327 14.2894 61.4298 13.9873H64.187C64.0199 14.7264 63.6857 15.3852 63.1844 15.9636C62.683 16.5357 62.0532 16.9823 61.2948 17.3037C60.5364 17.625 59.7073 17.7825 58.8075 17.776ZM56.3781 10.2178C56.2241 10.4864 56.1173 10.7755 56.0579 11.0855H61.5319C61.4922 10.694 61.3713 10.3373 61.1695 10.0153C60.938 9.63613 60.6232 9.34369 60.2247 9.13803C59.8262 8.92593 59.3763 8.81989 58.875 8.81989C58.3415 8.81989 57.8563 8.942 57.4192 9.18623C56.9822 9.43046 56.6351 9.77432 56.3781 10.2178ZM78.4456 6.90142C78.4456 6.04018 78.6415 5.27536 79.0336 4.60693C79.4256 3.93209 79.9752 3.40827 80.6822 3.0355C81.3955 2.6563 82.2279 2.46028 83.1791 2.44743V4.7901C82.7356 4.79653 82.3564 4.88973 82.0415 5.06969C81.733 5.24322 81.4952 5.49709 81.3281 5.8313C81.1743 6.13898 81.0912 6.49568 81.0791 6.90142H83.1212V9.12841H81.0775V17.5255H78.4456V9.12841H76.7488V6.90142H78.4456ZM93.5424 17.7567C92.4691 17.7567 91.5082 17.5221 90.6598 17.053C89.8179 16.5773 89.1559 15.9218 88.6739 15.0863C88.1982 14.2443 87.9605 13.2899 87.9605 12.2229C87.9605 11.1497 88.1982 10.192 88.6739 9.35007C89.1559 8.50169 89.8179 7.84292 90.6598 7.37374C91.5082 6.90456 92.4691 6.66996 93.5424 6.66996C94.6221 6.66996 95.5863 6.90456 96.4346 7.37374C97.2894 7.84292 97.9547 8.49848 98.4302 9.34044C98.9058 10.1824 99.1468 11.1432 99.1533 12.2229C99.1468 13.2899 98.9058 14.2443 98.4302 15.0863C97.961 15.9218 97.299 16.5773 96.4442 17.053C95.5895 17.5221 94.6221 17.7567 93.5424 17.7567ZM93.5424 15.337C94.108 15.337 94.6093 15.2084 95.0463 14.9513C95.4834 14.6878 95.8208 14.3215 96.0587 13.8522C96.2964 13.3767 96.4153 12.8335 96.4153 12.2229C96.4153 11.606 96.2964 11.0597 96.0587 10.5841C95.8208 10.1085 95.4834 9.74213 95.0463 9.48504C94.6093 9.22154 94.108 9.08978 93.5424 9.08978C92.9833 9.08978 92.4852 9.22154 92.0481 9.48504C91.6175 9.74213 91.2832 10.1085 91.0455 10.5841C90.8077 11.0597 90.692 11.606 90.6984 12.2229C90.6984 12.8335 90.8173 13.3767 91.0551 13.8522C91.2993 14.3215 91.6335 14.6878 92.0577 14.9513C92.4884 15.2084 92.9833 15.337 93.5424 15.337ZM101.997 6.90139H99.0666L102.238 17.5254H104.803L106.889 10.7399L109.141 17.5254H111.667L114.848 6.90139H112.197L110.393 13.5142L108.398 6.90139H105.834L103.85 13.6598L101.997 6.90139Z" fill="#F6EFE4"/>
<path d="M31.0398 0.564941L21.2875 19.6298H12.1273L16.2086 11.7285H16.0255C12.6585 16.0994 7.63466 18.9768 0.476562 19.6298V11.8379C0.476562 11.8379 5.05578 11.5674 7.74776 8.73713H0.476562V0.565092H8.64861V7.28648L8.83202 7.28573L12.1715 0.565092H18.3517V7.24386L18.5351 7.24356L21.9998 0.564941H31.0398ZM84.2203 17.5254H86.8522V2.41847H84.2203V17.5254ZM69.7109 17.3712C70.2828 17.609 70.8645 17.7279 71.4558 17.7279C72.4327 17.7279 73.3068 17.4901 74.0781 17.0145C74.8492 16.5389 75.447 15.8834 75.8712 15.0478C76.2954 14.2059 76.5075 13.2514 76.5075 12.1845C76.5075 11.1176 76.289 10.1632 75.852 9.32124C75.4148 8.4793 74.8075 7.82694 74.0298 7.36418C73.2521 6.89501 72.3684 6.66364 71.3786 6.67006C70.7488 6.67006 70.1447 6.79218 69.5662 7.03641C68.9878 7.28064 68.5058 7.6277 68.1201 8.0776C68.0903 8.11185 68.0614 8.14645 68.0334 8.18139V2.42816H65.3918V17.5255H68.0141L68.0088 16.1151C68.0766 16.1983 68.1491 16.2795 68.2261 16.3589C68.6439 16.7896 69.1388 17.1269 69.7109 17.3712ZM72.4102 14.9321C71.9796 15.1957 71.4879 15.3274 70.9351 15.3274C70.3888 15.3274 69.8875 15.1924 69.4312 14.9225C68.9748 14.6461 68.6118 14.2702 68.3418 13.7945C68.0783 13.3189 67.9465 12.779 67.9465 12.1748C67.9402 11.5707 68.0686 11.0308 68.3322 10.5553C68.6021 10.0732 68.9652 9.70044 69.4216 9.43693C69.8779 9.167 70.3825 9.03524 70.9351 9.04167C71.4879 9.03524 71.9796 9.16378 72.4102 9.42729C72.8472 9.68437 73.1814 10.0539 73.4128 10.536C73.6506 11.0116 73.7695 11.5579 73.7695 12.1748C73.7695 12.7919 73.6506 13.3382 73.4128 13.8138C73.1814 14.2895 72.8472 14.6622 72.4102 14.9321ZM34.8526 3.33437H37.8605L40.5512 13.1608L43.4136 3.33437H45.9202L49.0245 12.9636L51.6082 3.33437H54.3654L50.297 17.5255H47.7037L44.547 8.11845L41.6493 17.5255H39.0271L34.8526 3.33437ZM58.8075 17.776C57.7598 17.7825 56.8151 17.5511 55.9731 17.082C55.1376 16.6063 54.4789 15.9475 53.9967 15.1056C53.5212 14.2637 53.2834 13.3028 53.2834 12.223C53.2834 11.1754 53.5276 10.2274 54.0161 9.37905C54.5045 8.53066 55.1665 7.86867 56.002 7.39307C56.8376 6.91746 57.7695 6.67966 58.7978 6.67966C59.9547 6.67966 60.967 6.93674 61.8346 7.45091C62.7087 7.96507 63.3611 8.69456 63.7917 9.63934C64.2287 10.5777 64.3862 11.6542 64.2641 12.869H56.0062C56.0293 13.3529 56.15 13.7932 56.3684 14.1897C56.6127 14.6267 56.9533 14.9674 57.3903 15.2116C57.8274 15.4559 58.3158 15.578 58.8557 15.578C59.267 15.5715 59.6495 15.5009 60.0029 15.3659C60.3565 15.2245 60.6552 15.0349 60.8995 14.7971C61.1502 14.5593 61.327 14.2894 61.4298 13.9873H64.187C64.0199 14.7264 63.6857 15.3852 63.1844 15.9636C62.683 16.5357 62.0532 16.9823 61.2948 17.3037C60.5364 17.625 59.7073 17.7825 58.8075 17.776ZM56.3781 10.2178C56.2241 10.4864 56.1173 10.7755 56.0579 11.0855H61.5319C61.4922 10.694 61.3713 10.3373 61.1695 10.0153C60.938 9.63613 60.6232 9.34369 60.2247 9.13803C59.8262 8.92593 59.3763 8.81989 58.875 8.81989C58.3415 8.81989 57.8563 8.942 57.4192 9.18623C56.9822 9.43046 56.6351 9.77432 56.3781 10.2178ZM78.4456 6.90142C78.4456 6.04018 78.6415 5.27536 79.0336 4.60693C79.4256 3.93209 79.9752 3.40827 80.6822 3.0355C81.3955 2.6563 82.2279 2.46028 83.1791 2.44743V4.7901C82.7356 4.79653 82.3564 4.88973 82.0415 5.06969C81.733 5.24322 81.4952 5.49709 81.3281 5.8313C81.1743 6.13898 81.0912 6.49568 81.0791 6.90142H83.1212V9.12841H81.0775V17.5255H78.4456V9.12841H76.7488V6.90142H78.4456ZM93.5424 17.7567C92.4691 17.7567 91.5082 17.5221 90.6598 17.053C89.8179 16.5773 89.1559 15.9218 88.6739 15.0863C88.1982 14.2443 87.9605 13.2899 87.9605 12.2229C87.9605 11.1497 88.1982 10.192 88.6739 9.35007C89.1559 8.50169 89.8179 7.84292 90.6598 7.37374C91.5082 6.90456 92.4691 6.66996 93.5424 6.66996C94.6221 6.66996 95.5863 6.90456 96.4346 7.37374C97.2894 7.84292 97.9547 8.49848 98.4302 9.34044C98.9058 10.1824 99.1468 11.1432 99.1533 12.2229C99.1468 13.2899 98.9058 14.2443 98.4302 15.0863C97.961 15.9218 97.299 16.5773 96.4442 17.053C95.5895 17.5221 94.6221 17.7567 93.5424 17.7567ZM93.5424 15.337C94.108 15.337 94.6093 15.2084 95.0463 14.9513C95.4834 14.6878 95.8208 14.3215 96.0587 13.8522C96.2964 13.3767 96.4153 12.8335 96.4153 12.2229C96.4153 11.606 96.2964 11.0597 96.0587 10.5841C95.8208 10.1085 95.4834 9.74213 95.0463 9.48504C94.6093 9.22154 94.108 9.08978 93.5424 9.08978C92.9833 9.08978 92.4852 9.22154 92.0481 9.48504C91.6175 9.74213 91.2832 10.1085 91.0455 10.5841C90.8077 11.0597 90.692 11.606 90.6984 12.2229C90.6984 12.8335 90.8173 13.3767 91.0551 13.8522C91.2993 14.3215 91.6335 14.6878 92.0577 14.9513C92.4884 15.2084 92.9833 15.337 93.5424 15.337ZM101.997 6.90139H99.0666L102.238 17.5254H104.803L106.889 10.7399L109.141 17.5254H111.667L114.848 6.90139H112.197L110.393 13.5142L108.398 6.90139H105.834L103.85 13.6598L101.997 6.90139Z" fill="#F6EFE4"/>
<path fill-rule="evenodd" clip-rule="evenodd" d="M31.0398 0.564941L21.2875 19.6298H12.1273L16.2086 11.7285H16.0255C12.6585 16.0994 7.63466 18.9768 0.476562 19.6298V11.8379C0.476562 11.8379 5.05578 11.5674 7.74776 8.73713H0.476562V0.565092H8.64861V7.28648L8.83202 7.28573L12.1715 0.565092H18.3517V7.24386L18.5351 7.24356L21.9998 0.564941H31.0398ZM84.2203 17.5254H86.8522V2.41847H84.2203V17.5254ZM69.7109 17.3712C70.2828 17.609 70.8645 17.7279 71.4558 17.7279C72.4327 17.7279 73.3068 17.4901 74.0781 17.0145C74.8492 16.5389 75.447 15.8834 75.8712 15.0478C76.2954 14.2059 76.5075 13.2514 76.5075 12.1845C76.5075 11.1176 76.289 10.1632 75.852 9.32124C75.4148 8.4793 74.8075 7.82694 74.0298 7.36418C73.2521 6.89501 72.3684 6.66364 71.3786 6.67006C70.7488 6.67006 70.1447 6.79218 69.5662 7.03641C68.9878 7.28064 68.5058 7.6277 68.1201 8.0776C68.0903 8.11185 68.0614 8.14645 68.0334 8.18139V2.42816H65.3918V17.5255H68.0141L68.0088 16.1151C68.0766 16.1983 68.1491 16.2795 68.2261 16.3589C68.6439 16.7896 69.1388 17.1269 69.7109 17.3712ZM72.4102 14.9321C71.9796 15.1957 71.4879 15.3274 70.9351 15.3274C70.3888 15.3274 69.8875 15.1924 69.4312 14.9225C68.9748 14.6461 68.6118 14.2702 68.3418 13.7945C68.0783 13.3189 67.9465 12.779 67.9465 12.1748C67.9402 11.5707 68.0686 11.0308 68.3322 10.5553C68.6021 10.0732 68.9652 9.70044 69.4216 9.43693C69.8779 9.167 70.3825 9.03524 70.9351 9.04167C71.4879 9.03524 71.9796 9.16378 72.4102 9.42729C72.8472 9.68437 73.1814 10.0539 73.4128 10.536C73.6506 11.0116 73.7695 11.5579 73.7695 12.1748C73.7695 12.7919 73.6506 13.3382 73.4128 13.8138C73.1814 14.2895 72.8472 14.6622 72.4102 14.9321ZM34.8526 3.33437H37.8605L40.5512 13.1608L43.4136 3.33437H45.9202L49.0245 12.9636L51.6082 3.33437H54.3654L50.297 17.5255H47.7037L44.547 8.11845L41.6493 17.5255H39.0271L34.8526 3.33437ZM58.8075 17.776C57.7598 17.7825 56.8151 17.5511 55.9731 17.082C55.1376 16.6063 54.4789 15.9475 53.9967 15.1056C53.5212 14.2637 53.2834 13.3028 53.2834 12.223C53.2834 11.1754 53.5276 10.2274 54.0161 9.37905C54.5045 8.53066 55.1665 7.86867 56.002 7.39307C56.8376 6.91746 57.7695 6.67966 58.7978 6.67966C59.9547 6.67966 60.967 6.93674 61.8346 7.45091C62.7087 7.96507 63.3611 8.69456 63.7917 9.63934C64.2287 10.5777 64.3862 11.6542 64.2641 12.869H56.0062C56.0293 13.3529 56.15 13.7932 56.3684 14.1897C56.6127 14.6267 56.9533 14.9674 57.3903 15.2116C57.8274 15.4559 58.3158 15.578 58.8557 15.578C59.267 15.5715 59.6495 15.5009 60.0029 15.3659C60.3565 15.2245 60.6552 15.0349 60.8995 14.7971C61.1502 14.5593 61.327 14.2894 61.4298 13.9873H64.187C64.0199 14.7264 63.6857 15.3852 63.1844 15.9636C62.683 16.5357 62.0532 16.9823 61.2948 17.3037C60.5364 17.625 59.7073 17.7825 58.8075 17.776ZM56.3781 10.2178C56.2241 10.4864 56.1173 10.7755 56.0579 11.0855H61.5319C61.4922 10.694 61.3713 10.3373 61.1695 10.0153C60.938 9.63613 60.6232 9.34369 60.2247 9.13803C59.8262 8.92593 59.3763 8.81989 58.875 8.81989C58.3415 8.81989 57.8563 8.942 57.4192 9.18623C56.9822 9.43046 56.6351 9.77432 56.3781 10.2178ZM78.4456 6.90142C78.4456 6.04018 78.6415 5.27536 79.0336 4.60693C79.4256 3.93209 79.9752 3.40827 80.6822 3.0355C81.3955 2.6563 82.2279 2.46028 83.1791 2.44743V4.7901C82.7356 4.79653 82.3564 4.88973 82.0415 5.06969C81.733 5.24322 81.4952 5.49709 81.3281 5.8313C81.1743 6.13898 81.0912 6.49568 81.0791 6.90142H83.1212V9.12841H81.0775V17.5255H78.4456V9.12841H76.7488V6.90142H78.4456ZM93.5424 17.7567C92.4691 17.7567 91.5082 17.5221 90.6598 17.053C89.8179 16.5773 89.1559 15.9218 88.6739 15.0863C88.1982 14.2443 87.9605 13.2899 87.9605 12.2229C87.9605 11.1497 88.1982 10.192 88.6739 9.35007C89.1559 8.50169 89.8179 7.84292 90.6598 7.37374C91.5082 6.90456 92.4691 6.66996 93.5424 6.66996C94.6221 6.66996 95.5863 6.90456 96.4346 7.37374C97.2894 7.84292 97.9547 8.49848 98.4302 9.34044C98.9058 10.1824 99.1468 11.1432 99.1533 12.2229C99.1468 13.2899 98.9058 14.2443 98.4302 15.0863C97.961 15.9218 97.299 16.5773 96.4442 17.053C95.5895 17.5221 94.6221 17.7567 93.5424 17.7567ZM93.5424 15.337C94.108 15.337 94.6093 15.2084 95.0463 14.9513C95.4834 14.6878 95.8208 14.3215 96.0587 13.8522C96.2964 13.3767 96.4153 12.8335 96.4153 12.2229C96.4153 11.606 96.2964 11.0597 96.0587 10.5841C95.8208 10.1085 95.4834 9.74213 95.0463 9.48504C94.6093 9.22154 94.108 9.08978 93.5424 9.08978C92.9833 9.08978 92.4852 9.22154 92.0481 9.48504C91.6175 9.74213 91.2832 10.1085 91.0455 10.5841C90.8077 11.0597 90.692 11.606 90.6984 12.2229C90.6984 12.8335 90.8173 13.3767 91.0551 13.8522C91.2993 14.3215 91.6335 14.6878 92.0577 14.9513C92.4884 15.2084 92.9833 15.337 93.5424 15.337ZM101.997 6.90139H99.0666L102.238 17.5254H104.803L106.889 10.7399L109.141 17.5254H111.667L114.848 6.90139H112.197L110.393 13.5142L108.398 6.90139H105.834L103.85 13.6598L101.997 6.90139Z" fill="#F6EFE4"/>
<path d="M31.0398 0.564941L21.2875 19.6298H12.1273L16.2086 11.7285H16.0255C12.6585 16.0994 7.63466 18.9768 0.476562 19.6298V11.8379C0.476562 11.8379 5.05578 11.5674 7.74776 8.73713H0.476562V0.565092H8.64861V7.28648L8.83202 7.28573L12.1715 0.565092H18.3517V7.24386L18.5351 7.24356L21.9998 0.564941H31.0398ZM84.2203 17.5254H86.8522V2.41847H84.2203V17.5254ZM69.7109 17.3712C70.2828 17.609 70.8645 17.7279 71.4558 17.7279C72.4327 17.7279 73.3068 17.4901 74.0781 17.0145C74.8492 16.5389 75.447 15.8834 75.8712 15.0478C76.2954 14.2059 76.5075 13.2514 76.5075 12.1845C76.5075 11.1176 76.289 10.1632 75.852 9.32124C75.4148 8.4793 74.8075 7.82694 74.0298 7.36418C73.2521 6.89501 72.3684 6.66364 71.3786 6.67006C70.7488 6.67006 70.1447 6.79218 69.5662 7.03641C68.9878 7.28064 68.5058 7.6277 68.1201 8.0776C68.0903 8.11185 68.0614 8.14645 68.0334 8.18139V2.42816H65.3918V17.5255H68.0141L68.0088 16.1151C68.0766 16.1983 68.1491 16.2795 68.2261 16.3589C68.6439 16.7896 69.1388 17.1269 69.7109 17.3712ZM72.4102 14.9321C71.9796 15.1957 71.4879 15.3274 70.9351 15.3274C70.3888 15.3274 69.8875 15.1924 69.4312 14.9225C68.9748 14.6461 68.6118 14.2702 68.3418 13.7945C68.0783 13.3189 67.9465 12.779 67.9465 12.1748C67.9402 11.5707 68.0686 11.0308 68.3322 10.5553C68.6021 10.0732 68.9652 9.70044 69.4216 9.43693C69.8779 9.167 70.3825 9.03524 70.9351 9.04167C71.4879 9.03524 71.9796 9.16378 72.4102 9.42729C72.8472 9.68437 73.1814 10.0539 73.4128 10.536C73.6506 11.0116 73.7695 11.5579 73.7695 12.1748C73.7695 12.7919 73.6506 13.3382 73.4128 13.8138C73.1814 14.2895 72.8472 14.6622 72.4102 14.9321ZM34.8526 3.33437H37.8605L40.5512 13.1608L43.4136 3.33437H45.9202L49.0245 12.9636L51.6082 3.33437H54.3654L50.297 17.5255H47.7037L44.547 8.11845L41.6493 17.5255H39.0271L34.8526 3.33437ZM58.8075 17.776C57.7598 17.7825 56.8151 17.5511 55.9731 17.082C55.1376 16.6063 54.4789 15.9475 53.9967 15.1056C53.5212 14.2637 53.2834 13.3028 53.2834 12.223C53.2834 11.1754 53.5276 10.2274 54.0161 9.37905C54.5045 8.53066 55.1665 7.86867 56.002 7.39307C56.8376 6.91746 57.7695 6.67966 58.7978 6.67966C59.9547 6.67966 60.967 6.93674 61.8346 7.45091C62.7087 7.96507 63.3611 8.69456 63.7917 9.63934C64.2287 10.5777 64.3862 11.6542 64.2641 12.869H56.0062C56.0293 13.3529 56.15 13.7932 56.3684 14.1897C56.6127 14.6267 56.9533 14.9674 57.3903 15.2116C57.8274 15.4559 58.3158 15.578 58.8557 15.578C59.267 15.5715 59.6495 15.5009 60.0029 15.3659C60.3565 15.2245 60.6552 15.0349 60.8995 14.7971C61.1502 14.5593 61.327 14.2894 61.4298 13.9873H64.187C64.0199 14.7264 63.6857 15.3852 63.1844 15.9636C62.683 16.5357 62.0532 16.9823 61.2948 17.3037C60.5364 17.625 59.7073 17.7825 58.8075 17.776ZM56.3781 10.2178C56.2241 10.4864 56.1173 10.7755 56.0579 11.0855H61.5319C61.4922 10.694 61.3713 10.3373 61.1695 10.0153C60.938 9.63613 60.6232 9.34369 60.2247 9.13803C59.8262 8.92593 59.3763 8.81989 58.875 8.81989C58.3415 8.81989 57.8563 8.942 57.4192 9.18623C56.9822 9.43046 56.6351 9.77432 56.3781 10.2178ZM78.4456 6.90142C78.4456 6.04018 78.6415 5.27536 79.0336 4.60693C79.4256 3.93209 79.9752 3.40827 80.6822 3.0355C81.3955 2.6563 82.2279 2.46028 83.1791 2.44743V4.7901C82.7356 4.79653 82.3564 4.88973 82.0415 5.06969C81.733 5.24322 81.4952 5.49709 81.3281 5.8313C81.1743 6.13898 81.0912 6.49568 81.0791 6.90142H83.1212V9.12841H81.0775V17.5255H78.4456V9.12841H76.7488V6.90142H78.4456ZM93.5424 17.7567C92.4691 17.7567 91.5082 17.5221 90.6598 17.053C89.8179 16.5773 89.1559 15.9218 88.6739 15.0863C88.1982 14.2443 87.9605 13.2899 87.9605 12.2229C87.9605 11.1497 88.1982 10.192 88.6739 9.35007C89.1559 8.50169 89.8179 7.84292 90.6598 7.37374C91.5082 6.90456 92.4691 6.66996 93.5424 6.66996C94.6221 6.66996 95.5863 6.90456 96.4346 7.37374C97.2894 7.84292 97.9547 8.49848 98.4302 9.34044C98.9058 10.1824 99.1468 11.1432 99.1533 12.2229C99.1468 13.2899 98.9058 14.2443 98.4302 15.0863C97.961 15.9218 97.299 16.5773 96.4442 17.053C95.5895 17.5221 94.6221 17.7567 93.5424 17.7567ZM93.5424 15.337C94.108 15.337 94.6093 15.2084 95.0463 14.9513C95.4834 14.6878 95.8208 14.3215 96.0587 13.8522C96.2964 13.3767 96.4153 12.8335 96.4153 12.2229C96.4153 11.606 96.2964 11.0597 96.0587 10.5841C95.8208 10.1085 95.4834 9.74213 95.0463 9.48504C94.6093 9.22154 94.108 9.08978 93.5424 9.08978C92.9833 9.08978 92.4852 9.22154 92.0481 9.48504C91.6175 9.74213 91.2832 10.1085 91.0455 10.5841C90.8077 11.0597 90.692 11.606 90.6984 12.2229C90.6984 12.8335 90.8173 13.3767 91.0551 13.8522C91.2993 14.3215 91.6335 14.6878 92.0577 14.9513C92.4884 15.2084 92.9833 15.337 93.5424 15.337ZM101.997 6.90139H99.0666L102.238 17.5254H104.803L106.889 10.7399L109.141 17.5254H111.667L114.848 6.90139H112.197L110.393 13.5142L108.398 6.90139H105.834L103.85 13.6598L101.997 6.90139Z" fill="#F6EFE4"/>
<path fill-rule="evenodd" clip-rule="evenodd" d="M31.0398 0.564941L21.2875 19.6298H12.1273L16.2086 11.7285H16.0255C12.6585 16.0994 7.63466 18.9768 0.476562 19.6298V11.8379C0.476562 11.8379 5.05578 11.5674 7.74776 8.73713H0.476562V0.565092H8.64861V7.28648L8.83202 7.28573L12.1715 0.565092H18.3517V7.24386L18.5351 7.24356L21.9998 0.564941H31.0398ZM84.2203 17.5254H86.8522V2.41847H84.2203V17.5254ZM69.7109 17.3712C70.2828 17.609 70.8645 17.7279 71.4558 17.7279C72.4327 17.7279 73.3068 17.4901 74.0781 17.0145C74.8492 16.5389 75.447 15.8834 75.8712 15.0478C76.2954 14.2059 76.5075 13.2514 76.5075 12.1845C76.5075 11.1176 76.289 10.1632 75.852 9.32124C75.4148 8.4793 74.8075 7.82694 74.0298 7.36418C73.2521 6.89501 72.3684 6.66364 71.3786 6.67006C70.7488 6.67006 70.1447 6.79218 69.5662 7.03641C68.9878 7.28064 68.5058 7.6277 68.1201 8.0776C68.0903 8.11185 68.0614 8.14645 68.0334 8.18139V2.42816H65.3918V17.5255H68.0141L68.0088 16.1151C68.0766 16.1983 68.1491 16.2795 68.2261 16.3589C68.6439 16.7896 69.1388 17.1269 69.7109 17.3712ZM72.4102 14.9321C71.9796 15.1957 71.4879 15.3274 70.9351 15.3274C70.3888 15.3274 69.8875 15.1924 69.4312 14.9225C68.9748 14.6461 68.6118 14.2702 68.3418 13.7945C68.0783 13.3189 67.9465 12.779 67.9465 12.1748C67.9402 11.5707 68.0686 11.0308 68.3322 10.5553C68.6021 10.0732 68.9652 9.70044 69.4216 9.43693C69.8779 9.167 70.3825 9.03524 70.9351 9.04167C71.4879 9.03524 71.9796 9.16378 72.4102 9.42729C72.8472 9.68437 73.1814 10.0539 73.4128 10.536C73.6506 11.0116 73.7695 11.5579 73.7695 12.1748C73.7695 12.7919 73.6506 13.3382 73.4128 13.8138C73.1814 14.2895 72.8472 14.6622 72.4102 14.9321ZM34.8526 3.33437H37.8605L40.5512 13.1608L43.4136 3.33437H45.9202L49.0245 12.9636L51.6082 3.33437H54.3654L50.297 17.5255H47.7037L44.547 8.11845L41.6493 17.5255H39.0271L34.8526 3.33437ZM58.8075 17.776C57.7598 17.7825 56.8151 17.5511 55.9731 17.082C55.1376 16.6063 54.4789 15.9475 53.9967 15.1056C53.5212 14.2637 53.2834 13.3028 53.2834 12.223C53.2834 11.1754 53.5276 10.2274 54.0161 9.37905C54.5045 8.53066 55.1665 7.86867 56.002 7.39307C56.8376 6.91746 57.7695 6.67966 58.7978 6.67966C59.9547 6.67966 60.967 6.93674 61.8346 7.45091C62.7087 7.96507 63.3611 8.69456 63.7917 9.63934C64.2287 10.5777 64.3862 11.6542 64.2641 12.869H56.0062C56.0293 13.3529 56.15 13.7932 56.3684 14.1897C56.6127 14.6267 56.9533 14.9674 57.3903 15.2116C57.8274 15.4559 58.3158 15.578 58.8557 15.578C59.267 15.5715 59.6495 15.5009 60.0029 15.3659C60.3565 15.2245 60.6552 15.0349 60.8995 14.7971C61.1502 14.5593 61.327 14.2894 61.4298 13.9873H64.187C64.0199 14.7264 63.6857 15.3852 63.1844 15.9636C62.683 16.5357 62.0532 16.9823 61.2948 17.3037C60.5364 17.625 59.7073 17.7825 58.8075 17.776ZM56.3781 10.2178C56.2241 10.4864 56.1173 10.7755 56.0579 11.0855H61.5319C61.4922 10.694 61.3713 10.3373 61.1695 10.0153C60.938 9.63613 60.6232 9.34369 60.2247 9.13803C59.8262 8.92593 59.3763 8.81989 58.875 8.81989C58.3415 8.81989 57.8563 8.942 57.4192 9.18623C56.9822 9.43046 56.6351 9.77432 56.3781 10.2178ZM78.4456 6.90142C78.4456 6.04018 78.6415 5.27536 79.0336 4.60693C79.4256 3.93209 79.9752 3.40827 80.6822 3.0355C81.3955 2.6563 82.2279 2.46028 83.1791 2.44743V4.7901C82.7356 4.79653 82.3564 4.88973 82.0415 5.06969C81.733 5.24322 81.4952 5.49709 81.3281 5.8313C81.1743 6.13898 81.0912 6.49568 81.0791 6.90142H83.1212V9.12841H81.0775V17.5255H78.4456V9.12841H76.7488V6.90142H78.4456ZM93.5424 17.7567C92.4691 17.7567 91.5082 17.5221 90.6598 17.053C89.8179 16.5773 89.1559 15.9218 88.6739 15.0863C88.1982 14.2443 87.9605 13.2899 87.9605 12.2229C87.9605 11.1497 88.1982 10.192 88.6739 9.35007C89.1559 8.50169 89.8179 7.84292 90.6598 7.37374C91.5082 6.90456 92.4691 6.66996 93.5424 6.66996C94.6221 6.66996 95.5863 6.90456 96.4346 7.37374C97.2894 7.84292 97.9547 8.49848 98.4302 9.34044C98.9058 10.1824 99.1468 11.1432 99.1533 12.2229C99.1468 13.2899 98.9058 14.2443 98.4302 15.0863C97.961 15.9218 97.299 16.5773 96.4442 17.053C95.5895 17.5221 94.6221 17.7567 93.5424 17.7567ZM93.5424 15.337C94.108 15.337 94.6093 15.2084 95.0463 14.9513C95.4834 14.6878 95.8208 14.3215 96.0587 13.8522C96.2964 13.3767 96.4153 12.8335 96.4153 12.2229C96.4153 11.606 96.2964 11.0597 96.0587 10.5841C95.8208 10.1085 95.4834 9.74213 95.0463 9.48504C94.6093 9.22154 94.108 9.08978 93.5424 9.08978C92.9833 9.08978 92.4852 9.22154 92.0481 9.48504C91.6175 9.74213 91.2832 10.1085 91.0455 10.5841C90.8077 11.0597 90.692 11.606 90.6984 12.2229C90.6984 12.8335 90.8173 13.3767 91.0551 13.8522C91.2993 14.3215 91.6335 14.6878 92.0577 14.9513C92.4884 15.2084 92.9833 15.337 93.5424 15.337ZM101.997 6.90139H99.0666L102.238 17.5254H104.803L106.889 10.7399L109.141 17.5254H111.667L114.848 6.90139H112.197L110.393 13.5142L108.398 6.90139H105.834L103.85 13.6598L101.997 6.90139Z" fill="#F6EFE4"/>
<path d="M31.0398 0.564941L21.2875 19.6298H12.1273L16.2086 11.7285H16.0255C12.6585 16.0994 7.63466 18.9768 0.476562 19.6298V11.8379C0.476562 11.8379 5.05578 11.5674 7.74776 8.73713H0.476562V0.565092H8.64861V7.28648L8.83202 7.28573L12.1715 0.565092H18.3517V7.24386L18.5351 7.24356L21.9998 0.564941H31.0398ZM84.2203 17.5254H86.8522V2.41847H84.2203V17.5254ZM69.7109 17.3712C70.2828 17.609 70.8645 17.7279 71.4558 17.7279C72.4327 17.7279 73.3068 17.4901 74.0781 17.0145C74.8492 16.5389 75.447 15.8834 75.8712 15.0478C76.2954 14.2059 76.5075 13.2514 76.5075 12.1845C76.5075 11.1176 76.289 10.1632 75.852 9.32124C75.4148 8.4793 74.8075 7.82694 74.0298 7.36418C73.2521 6.89501 72.3684 6.66364 71.3786 6.67006C70.7488 6.67006 70.1447 6.79218 69.5662 7.03641C68.9878 7.28064 68.5058 7.6277 68.1201 8.0776C68.0903 8.11185 68.0614 8.14645 68.0334 8.18139V2.42816H65.3918V17.5255H68.0141L68.0088 16.1151C68.0766 16.1983 68.1491 16.2795 68.2261 16.3589C68.6439 16.7896 69.1388 17.1269 69.7109 17.3712ZM72.4102 14.9321C71.9796 15.1957 71.4879 15.3274 70.9351 15.3274C70.3888 15.3274 69.8875 15.1924 69.4312 14.9225C68.9748 14.6461 68.6118 14.2702 68.3418 13.7945C68.0783 13.3189 67.9465 12.779 67.9465 12.1748C67.9402 11.5707 68.0686 11.0308 68.3322 10.5553C68.6021 10.0732 68.9652 9.70044 69.4216 9.43693C69.8779 9.167 70.3825 9.03524 70.9351 9.04167C71.4879 9.03524 71.9796 9.16378 72.4102 9.42729C72.8472 9.68437 73.1814 10.0539 73.4128 10.536C73.6506 11.0116 73.7695 11.5579 73.7695 12.1748C73.7695 12.7919 73.6506 13.3382 73.4128 13.8138C73.1814 14.2895 72.8472 14.6622 72.4102 14.9321ZM34.8526 3.33437H37.8605L40.5512 13.1608L43.4136 3.33437H45.9202L49.0245 12.9636L51.6082 3.33437H54.3654L50.297 17.5255H47.7037L44.547 8.11845L41.6493 17.5255H39.0271L34.8526 3.33437ZM58.8075 17.776C57.7598 17.7825 56.8151 17.5511 55.9731 17.082C55.1376 16.6063 54.4789 15.9475 53.9967 15.1056C53.5212 14.2637 53.2834 13.3028 53.2834 12.223C53.2834 11.1754 53.5276 10.2274 54.0161 9.37905C54.5045 8.53066 55.1665 7.86867 56.002 7.39307C56.8376 6.91746 57.7695 6.67966 58.7978 6.67966C59.9547 6.67966 60.967 6.93674 61.8346 7.45091C62.7087 7.96507 63.3611 8.69456 63.7917 9.63934C64.2287 10.5777 64.3862 11.6542 64.2641 12.869H56.0062C56.0293 13.3529 56.15 13.7932 56.3684 14.1897C56.6127 14.6267 56.9533 14.9674 57.3903 15.2116C57.8274 15.4559 58.3158 15.578 58.8557 15.578C59.267 15.5715 59.6495 15.5009 60.0029 15.3659C60.3565 15.2245 60.6552 15.0349 60.8995 14.7971C61.1502 14.5593 61.327 14.2894 61.4298 13.9873H64.187C64.0199 14.7264 63.6857 15.3852 63.1844 15.9636C62.683 16.5357 62.0532 16.9823 61.2948 17.3037C60.5364 17.625 59.7073 17.7825 58.8075 17.776ZM56.3781 10.2178C56.2241 10.4864 56.1173 10.7755 56.0579 11.0855H61.5319C61.4922 10.694 61.3713 10.3373 61.1695 10.0153C60.938 9.63613 60.6232 9.34369 60.2247 9.13803C59.8262 8.92593 59.3763 8.81989 58.875 8.81989C58.3415 8.81989 57.8563 8.942 57.4192 9.18623C56.9822 9.43046 56.6351 9.77432 56.3781 10.2178ZM78.4456 6.90142C78.4456 6.04018 78.6415 5.27536 79.0336 4.60693C79.4256 3.93209 79.9752 3.40827 80.6822 3.0355C81.3955 2.6563 82.2279 2.46028 83.1791 2.44743V4.7901C82.7356 4.79653 82.3564 4.88973 82.0415 5.06969C81.733 5.24322 81.4952 5.49709 81.3281 5.8313C81.1743 6.13898 81.0912 6.49568 81.0791 6.90142H83.1212V9.12841H81.0775V17.5255H78.4456V9.12841H76.7488V6.90142H78.4456ZM93.5424 17.7567C92.4691 17.7567 91.5082 17.5221 90.6598 17.053C89.8179 16.5773 89.1559 15.9218 88.6739 15.0863C88.1982 14.2443 87.9605 13.2899 87.9605 12.2229C87.9605 11.1497 88.1982 10.192 88.6739 9.35007C89.1559 8.50169 89.8179 7.84292 90.6598 7.37374C91.5082 6.90456 92.4691 6.66996 93.5424 6.66996C94.6221 6.66996 95.5863 6.90456 96.4346 7.37374C97.2894 7.84292 97.9547 8.49848 98.4302 9.34044C98.9058 10.1824 99.1468 11.1432 99.1533 12.2229C99.1468 13.2899 98.9058 14.2443 98.4302 15.0863C97.961 15.9218 97.299 16.5773 96.4442 17.053C95.5895 17.5221 94.6221 17.7567 93.5424 17.7567ZM93.5424 15.337C94.108 15.337 94.6093 15.2084 95.0463 14.9513C95.4834 14.6878 95.8208 14.3215 96.0587 13.8522C96.2964 13.3767 96.4153 12.8335 96.4153 12.2229C96.4153 11.606 96.2964 11.0597 96.0587 10.5841C95.8208 10.1085 95.4834 9.74213 95.0463 9.48504C94.6093 9.22154 94.108 9.08978 93.5424 9.08978C92.9833 9.08978 92.4852 9.22154 92.0481 9.48504C91.6175 9.74213 91.2832 10.1085 91.0455 10.5841C90.8077 11.0597 90.692 11.606 90.6984 12.2229C90.6984 12.8335 90.8173 13.3767 91.0551 13.8522C91.2993 14.3215 91.6335 14.6878 92.0577 14.9513C92.4884 15.2084 92.9833 15.337 93.5424 15.337ZM101.997 6.90139H99.0666L102.238 17.5254H104.803L106.889 10.7399L109.141 17.5254H111.667L114.848 6.90139H112.197L110.393 13.5142L108.398 6.90139H105.834L103.85 13.6598L101.997 6.90139Z" fill="#F6EFE4"/>
<path fill-rule="evenodd" clip-rule="evenodd" d="M31.0398 0.564941L21.2875 19.6298H12.1273L16.2086 11.7285H16.0255C12.6585 16.0994 7.63466 18.9768 0.476562 19.6298V11.8379C0.476562 11.8379 5.05578 11.5674 7.74776 8.73713H0.476562V0.565092H8.64861V7.28648L8.83202 7.28573L12.1715 0.565092H18.3517V7.24386L18.5351 7.24356L21.9998 0.564941H31.0398ZM84.2203 17.5254H86.8522V2.41847H84.2203V17.5254ZM69.7109 17.3712C70.2828 17.609 70.8645 17.7279 71.4558 17.7279C72.4327 17.7279 73.3068 17.4901 74.0781 17.0145C74.8492 16.5389 75.447 15.8834 75.8712 15.0478C76.2954 14.2059 76.5075 13.2514 76.5075 12.1845C76.5075 11.1176 76.289 10.1632 75.852 9.32124C75.4148 8.4793 74.8075 7.82694 74.0298 7.36418C73.2521 6.89501 72.3684 6.66364 71.3786 6.67006C70.7488 6.67006 70.1447 6.79218 69.5662 7.03641C68.9878 7.28064 68.5058 7.6277 68.1201 8.0776C68.0903 8.11185 68.0614 8.14645 68.0334 8.18139V2.42816H65.3918V17.5255H68.0141L68.0088 16.1151C68.0766 16.1983 68.1491 16.2795 68.2261 16.3589C68.6439 16.7896 69.1388 17.1269 69.7109 17.3712ZM72.4102 14.9321C71.9796 15.1957 71.4879 15.3274 70.9351 15.3274C70.3888 15.3274 69.8875 15.1924 69.4312 14.9225C68.9748 14.6461 68.6118 14.2702 68.3418 13.7945C68.0783 13.3189 67.9465 12.779 67.9465 12.1748C67.9402 11.5707 68.0686 11.0308 68.3322 10.5553C68.6021 10.0732 68.9652 9.70044 69.4216 9.43693C69.8779 9.167 70.3825 9.03524 70.9351 9.04167C71.4879 9.03524 71.9796 9.16378 72.4102 9.42729C72.8472 9.68437 73.1814 10.0539 73.4128 10.536C73.6506 11.0116 73.7695 11.5579 73.7695 12.1748C73.7695 12.7919 73.6506 13.3382 73.4128 13.8138C73.1814 14.2895 72.8472 14.6622 72.4102 14.9321ZM34.8526 3.33437H37.8605L40.5512 13.1608L43.4136 3.33437H45.9202L49.0245 12.9636L51.6082 3.33437H54.3654L50.297 17.5255H47.7037L44.547 8.11845L41.6493 17.5255H39.0271L34.8526 3.33437ZM58.8075 17.776C57.7598 17.7825 56.8151 17.5511 55.9731 17.082C55.1376 16.6063 54.4789 15.9475 53.9967 15.1056C53.5212 14.2637 53.2834 13.3028 53.2834 12.223C53.2834 11.1754 53.5276 10.2274 54.0161 9.37905C54.5045 8.53066 55.1665 7.86867 56.002 7.39307C56.8376 6.91746 57.7695 6.67966 58.7978 6.67966C59.9547 6.67966 60.967 6.93674 61.8346 7.45091C62.7087 7.96507 63.3611 8.69456 63.7917 9.63934C64.2287 10.5777 64.3862 11.6542 64.2641 12.869H56.0062C56.0293 13.3529 56.15 13.7932 56.3684 14.1897C56.6127 14.6267 56.9533 14.9674 57.3903 15.2116C57.8274 15.4559 58.3158 15.578 58.8557 15.578C59.267 15.5715 59.6495 15.5009 60.0029 15.3659C60.3565 15.2245 60.6552 15.0349 60.8995 14.7971C61.1502 14.5593 61.327 14.2894 61.4298 13.9873H64.187C64.0199 14.7264 63.6857 15.3852 63.1844 15.9636C62.683 16.5357 62.0532 16.9823 61.2948 17.3037C60.5364 17.625 59.7073 17.7825 58.8075 17.776ZM56.3781 10.2178C56.2241 10.4864 56.1173 10.7755 56.0579 11.0855H61.5319C61.4922 10.694 61.3713 10.3373 61.1695 10.0153C60.938 9.63613 60.6232 9.34369 60.2247 9.13803C59.8262 8.92593 59.3763 8.81989 58.875 8.81989C58.3415 8.81989 57.8563 8.942 57.4192 9.18623C56.9822 9.43046 56.6351 9.77432 56.3781 10.2178ZM78.4456 6.90142C78.4456 6.04018 78.6415 5.27536 79.0336 4.60693C79.4256 3.93209 79.9752 3.40827 80.6822 3.0355C81.3955 2.6563 82.2279 2.46028 83.1791 2.44743V4.7901C82.7356 4.79653 82.3564 4.88973 82.0415 5.06969C81.733 5.24322 81.4952 5.49709 81.3281 5.8313C81.1743 6.13898 81.0912 6.49568 81.0791 6.90142H83.1212V9.12841H81.0775V17.5255H78.4456V9.12841H76.7488V6.90142H78.4456ZM93.5424 17.7567C92.4691 17.7567 91.5082 17.5221 90.6598 17.053C89.8179 16.5773 89.1559 15.9218 88.6739 15.0863C88.1982 14.2443 87.9605 13.2899 87.9605 12.2229C87.9605 11.1497 88.1982 10.192 88.6739 9.35007C89.1559 8.50169 89.8179 7.84292 90.6598 7.37374C91.5082 6.90456 92.4691 6.66996 93.5424 6.66996C94.6221 6.66996 95.5863 6.90456 96.4346 7.37374C97.2894 7.84292 97.9547 8.49848 98.4302 9.34044C98.9058 10.1824 99.1468 11.1432 99.1533 12.2229C99.1468 13.2899 98.9058 14.2443 98.4302 15.0863C97.961 15.9218 97.299 16.5773 96.4442 17.053C95.5895 17.5221 94.6221 17.7567 93.5424 17.7567ZM93.5424 15.337C94.108 15.337 94.6093 15.2084 95.0463 14.9513C95.4834 14.6878 95.8208 14.3215 96.0587 13.8522C96.2964 13.3767 96.4153 12.8335 96.4153 12.2229C96.4153 11.606 96.2964 11.0597 96.0587 10.5841C95.8208 10.1085 95.4834 9.74213 95.0463 9.48504C94.6093 9.22154 94.108 9.08978 93.5424 9.08978C92.9833 9.08978 92.4852 9.22154 92.0481 9.48504C91.6175 9.74213 91.2832 10.1085 91.0455 10.5841C90.8077 11.0597 90.692 11.606 90.6984 12.2229C90.6984 12.8335 90.8173 13.3767 91.0551 13.8522C91.2993 14.3215 91.6335 14.6878 92.0577 14.9513C92.4884 15.2084 92.9833 15.337 93.5424 15.337ZM101.997 6.90139H99.0666L102.238 17.5254H104.803L106.889 10.7399L109.141 17.5254H111.667L114.848 6.90139H112.197L110.393 13.5142L108.398 6.90139H105.834L103.85 13.6598L101.997 6.90139Z" fill="#F6EFE4"/>
<path d="M31.0398 0.564941L21.2875 19.6298H12.1273L16.2086 11.7285H16.0255C12.6585 16.0994 7.63466 18.9768 0.476562 19.6298V11.8379C0.476562 11.8379 5.05578 11.5674 7.74776 8.73713H0.476562V0.565092H8.64861V7.28648L8.83202 7.28573L12.1715 0.565092H18.3517V7.24386L18.5351 7.24356L21.9998 0.564941H31.0398ZM84.2203 17.5254H86.8522V2.41847H84.2203V17.5254ZM69.7109 17.3712C70.2828 17.609 70.8645 17.7279 71.4558 17.7279C72.4327 17.7279 73.3068 17.4901 74.0781 17.0145C74.8492 16.5389 75.447 15.8834 75.8712 15.0478C76.2954 14.2059 76.5075 13.2514 76.5075 12.1845C76.5075 11.1176 76.289 10.1632 75.852 9.32124C75.4148 8.4793 74.8075 7.82694 74.0298 7.36418C73.2521 6.89501 72.3684 6.66364 71.3786 6.67006C70.7488 6.67006 70.1447 6.79218 69.5662 7.03641C68.9878 7.28064 68.5058 7.6277 68.1201 8.0776C68.0903 8.11185 68.0614 8.14645 68.0334 8.18139V2.42816H65.3918V17.5255H68.0141L68.0088 16.1151C68.0766 16.1983 68.1491 16.2795 68.2261 16.3589C68.6439 16.7896 69.1388 17.1269 69.7109 17.3712ZM72.4102 14.9321C71.9796 15.1957 71.4879 15.3274 70.9351 15.3274C70.3888 15.3274 69.8875 15.1924 69.4312 14.9225C68.9748 14.6461 68.6118 14.2702 68.3418 13.7945C68.0783 13.3189 67.9465 12.779 67.9465 12.1748C67.9402 11.5707 68.0686 11.0308 68.3322 10.5553C68.6021 10.0732 68.9652 9.70044 69.4216 9.43693C69.8779 9.167 70.3825 9.03524 70.9351 9.04167C71.4879 9.03524 71.9796 9.16378 72.4102 9.42729C72.8472 9.68437 73.1814 10.0539 73.4128 10.536C73.6506 11.0116 73.7695 11.5579 73.7695 12.1748C73.7695 12.7919 73.6506 13.3382 73.4128 13.8138C73.1814 14.2895 72.8472 14.6622 72.4102 14.9321ZM34.8526 3.33437H37.8605L40.5512 13.1608L43.4136 3.33437H45.9202L49.0245 12.9636L51.6082 3.33437H54.3654L50.297 17.5255H47.7037L44.547 8.11845L41.6493 17.5255H39.0271L34.8526 3.33437ZM58.8075 17.776C57.7598 17.7825 56.8151 17.5511 55.9731 17.082C55.1376 16.6063 54.4789 15.9475 53.9967 15.1056C53.5212 14.2637 53.2834 13.3028 53.2834 12.223C53.2834 11.1754 53.5276 10.2274 54.0161 9.37905C54.5045 8.53066 55.1665 7.86867 56.002 7.39307C56.8376 6.91746 57.7695 6.67966 58.7978 6.67966C59.9547 6.67966 60.967 6.93674 61.8346 7.45091C62.7087 7.96507 63.3611 8.69456 63.7917 9.63934C64.2287 10.5777 64.3862 11.6542 64.2641 12.869H56.0062C56.0293 13.3529 56.15 13.7932 56.3684 14.1897C56.6127 14.6267 56.9533 14.9674 57.3903 15.2116C57.8274 15.4559 58.3158 15.578 58.8557 15.578C59.267 15.5715 59.6495 15.5009 60.0029 15.3659C60.3565 15.2245 60.6552 15.0349 60.8995 14.7971C61.1502 14.5593 61.327 14.2894 61.4298 13.9873H64.187C64.0199 14.7264 63.6857 15.3852 63.1844 15.9636C62.683 16.5357 62.0532 16.9823 61.2948 17.3037C60.5364 17.625 59.7073 17.7825 58.8075 17.776ZM56.3781 10.2178C56.2241 10.4864 56.1173 10.7755 56.0579 11.0855H61.5319C61.4922 10.694 61.3713 10.3373 61.1695 10.0153C60.938 9.63613 60.6232 9.34369 60.2247 9.13803C59.8262 8.92593 59.3763 8.81989 58.875 8.81989C58.3415 8.81989 57.8563 8.942 57.4192 9.18623C56.9822 9.43046 56.6351 9.77432 56.3781 10.2178ZM78.4456 6.90142C78.4456 6.04018 78.6415 5.27536 79.0336 4.60693C79.4256 3.93209 79.9752 3.40827 80.6822 3.0355C81.3955 2.6563 82.2279 2.46028 83.1791 2.44743V4.7901C82.7356 4.79653 82.3564 4.88973 82.0415 5.06969C81.733 5.24322 81.4952 5.49709 81.3281 5.8313C81.1743 6.13898 81.0912 6.49568 81.0791 6.90142H83.1212V9.12841H81.0775V17.5255H78.4456V9.12841H76.7488V6.90142H78.4456ZM93.5424 17.7567C92.4691 17.7567 91.5082 17.5221 90.6598 17.053C89.8179 16.5773 89.1559 15.9218 88.6739 15.0863C88.1982 14.2443 87.9605 13.2899 87.9605 12.2229C87.9605 11.1497 88.1982 10.192 88.6739 9.35007C89.1559 8.50169 89.8179 7.84292 90.6598 7.37374C91.5082 6.90456 92.4691 6.66996 93.5424 6.66996C94.6221 6.66996 95.5863 6.90456 96.4346 7.37374C97.2894 7.84292 97.9547 8.49848 98.4302 9.34044C98.9058 10.1824 99.1468 11.1432 99.1533 12.2229C99.1468 13.2899 98.9058 14.2443 98.4302 15.0863C97.961 15.9218 97.299 16.5773 96.4442 17.053C95.5895 17.5221 94.6221 17.7567 93.5424 17.7567ZM93.5424 15.337C94.108 15.337 94.6093 15.2084 95.0463 14.9513C95.4834 14.6878 95.8208 14.3215 96.0587 13.8522C96.2964 13.3767 96.4153 12.8335 96.4153 12.2229C96.4153 11.606 96.2964 11.0597 96.0587 10.5841C95.8208 10.1085 95.4834 9.74213 95.0463 9.48504C94.6093 9.22154 94.108 9.08978 93.5424 9.08978C92.9833 9.08978 92.4852 9.22154 92.0481 9.48504C91.6175 9.74213 91.2832 10.1085 91.0455 10.5841C90.8077 11.0597 90.692 11.606 90.6984 12.2229C90.6984 12.8335 90.8173 13.3767 91.0551 13.8522C91.2993 14.3215 91.6335 14.6878 92.0577 14.9513C92.4884 15.2084 92.9833 15.337 93.5424 15.337ZM101.997 6.90139H99.0666L102.238 17.5254H104.803L106.889 10.7399L109.141 17.5254H111.667L114.848 6.90139H112.197L110.393 13.5142L108.398 6.90139H105.834L103.85 13.6598L101.997 6.90139Z" fill="#F6EFE4"/>
</svg>
